HIERARCHY
ROOT pelvis
{
	OFFSET 0.000000 0.000000 0.893624
	CHANNELS 6 Xposition Yposition Zposition Xrotation Yrotation Zrotation
	JOINT spine
	{
		OFFSET 0.000000 0.000000 0.000000
		CHANNELS 6 Xposition Yposition Zposition Xrotation Yrotation Zrotation
		JOINT spine.001
		{
			OFFSET 0.000000 -0.015173 0.289521
			CHANNELS 3 Xrotation Yrotation Zrotation
			JOINT neck
			{
				OFFSET 0.000000 0.035332 0.287757
				CHANNELS 6 Xposition Yposition Zposition Xrotation Yrotation Zrotation
				JOINT face
				{
					OFFSET 0.000000 0.003791 0.217184
					CHANNELS 6 Xposition Yposition Zposition Xrotation Yrotation Zrotation
					End Site
					{
						OFFSET 0.000000 -0.031072 -0.008898
					}
				}
			}
			JOINT shoulder.L
			{
				OFFSET 0.000000 0.035332 0.287757
				CHANNELS 6 Xposition Yposition Zposition Yrotation Xrotation Zrotation
				JOINT upper_arm.L
				{
					OFFSET 0.185921 0.000000 0.000000
					CHANNELS 6 Xposition Yposition Zposition Xrotation Yrotation Zrotation
					JOINT forearm.L
					{
						OFFSET 0.313101 0.000132 0.001094
						CHANNELS 6 Xposition Yposition Zposition Xrotation Yrotation Zrotation
						End Site
						{
							OFFSET 0.263484 -0.004478 -0.001507
						}
					}
				}
			}
			JOINT shoulder.R
			{
				OFFSET 0.000000 0.035332 0.287757
				CHANNELS 6 Xposition Yposition Zposition Yrotation Xrotation Zrotation
				JOINT upper_arm.R
				{
					OFFSET -0.185921 0.000000 0.000000
					CHANNELS 6 Xposition Yposition Zposition Xrotation Yrotation Zrotation
					JOINT forearm.R
					{
						OFFSET -0.303975 0.000132 0.001094
						CHANNELS 6 Xposition Yposition Zposition Xrotation Yrotation Zrotation
						End Site
						{
							OFFSET -0.264756 -0.004500 -0.001507
						}
					}
				}
			}
		}
	}
	JOINT pelvis.L
	{
		OFFSET 0.000000 0.000000 0.000000
		CHANNELS 6 Xposition Yposition Zposition Yrotation Xrotation Zrotation
		End Site
		{
			OFFSET 0.115393 0.000000 0.000000
		}
	}
	JOINT pelvis.R
	{
		OFFSET 0.000000 0.000000 0.000000
		CHANNELS 6 Xposition Yposition Zposition Yrotation Xrotation Zrotation
		End Site
		{
			OFFSET -0.115393 0.000000 0.000000
		}
	}
	JOINT thigh.L
	{
		OFFSET 0.115393 0.000000 0.000000
		CHANNELS 6 Xposition Yposition Zposition Xrotation Yrotation Zrotation
		JOINT shin.L
		{
			OFFSET 0.022329 0.000000 -0.426068
			CHANNELS 6 Xposition Yposition Zposition Xrotation Yrotation Zrotation
			JOINT foot.L
			{
				OFFSET 0.020006 0.000000 -0.381744
				CHANNELS 3 Xrotation Yrotation Zrotation
				End Site
				{
					OFFSET 0.018100 -0.184549 -0.077495
				}
			}
			JOINT heel.02.L
			{
				OFFSET 0.020006 0.000000 -0.381744
				CHANNELS 3 Xrotation Yrotation Zrotation
				End Site
				{
					OFFSET 0.098774 0.039353 -0.079644
				}
			}
		}
	}
	JOINT thigh.R
	{
		OFFSET -0.115393 0.000000 0.000000
		CHANNELS 6 Xposition Yposition Zposition Xrotation Yrotation Zrotation
		JOINT shin.R
		{
			OFFSET -0.022775 0.000000 -0.434566
			CHANNELS 6 Xposition Yposition Zposition Xrotation Yrotation Zrotation
			JOINT foot.R
			{
				OFFSET -0.020147 0.000000 -0.384433
				CHANNELS 3 Xrotation Yrotation Zrotation
				End Site
				{
					OFFSET -0.018365 -0.187251 -0.078630
				}
			}
			JOINT heel.02.R
			{
				OFFSET -0.020147 0.000000 -0.384433
				CHANNELS 3 Xrotation Yrotation Zrotation
				End Site
				{
					OFFSET -0.090271 0.039353 -0.068871
				}
			}
		}
	}
}
MOTION
Frames: 4
Frame Time: 0.041667
0.008163 -0.032683 0.860293 -0.000000 0.000000 3.911386 -0.000000 0.000000 0.000000 8.296621 1.721941 -0.034518 9.999399 0.090838 0.739815 0.000000 0.035332 0.287757 40.835000 -2.820070 -1.171936 -0.000000 0.003791 0.217185 -6.984460 0.000000 -0.000000 0.000000 0.035332 0.287757 -0.503284 0.000275 0.061736 0.185921 -0.000000 0.000000 -27.088564 78.803779 32.597057 0.313101 0.000132 0.001094 1.674256 7.932414 -23.746927 0.000000 0.035332 0.287757 -0.450821 0.000222 0.055310 -0.185921 0.000000 -0.000000 1.789126 -78.380293 2.240607 -0.303975 0.000132 0.001094 0.994576 -7.852692 13.575408 -0.000000 -0.000000 -0.000000 0.480395 -0.000000 0.000006 0.000000 -0.000000 -0.000000 0.480366 -0.000000 0.000000 0.115389 0.000000 -0.000968 4.037872 0.479593 0.194840 0.022329 0.000000 -0.426068 4.364610 0.233962 0.219957 -7.680979 4.405959 -10.396781 -3.423765 38.630413 29.819428 -0.115389 0.000000 0.000967 6.800589 0.218592 -0.369773 -0.022775 -0.000000 -0.434566 1.705495 -1.186940 -0.071759 -12.138032 1.210035 0.073745 -10.950260 -41.943492 -32.749186 
0.008885 -0.032105 0.859622 -0.000000 0.000000 4.083910 -0.000000 0.000000 0.000000 8.478903 1.621102 -0.035076 9.999211 0.105699 0.860859 -0.000000 0.035332 0.287757 40.747768 -2.904407 -1.058505 -0.000000 0.003791 0.217185 -7.030740 0.000000 -0.000002 -0.000000 0.035332 0.287757 -0.642502 0.000439 0.078900 0.185921 0.000000 0.000000 -26.965291 78.457761 32.639756 0.313101 0.000132 0.001094 1.810928 8.770592 -23.001126 -0.000000 0.035332 0.287757 -0.590049 0.000370 0.072438 -0.185921 -0.000000 -0.000000 0.589098 -78.248983 0.772710 -0.303975 0.000132 0.001094 0.968793 -7.754581 13.380294 0.000000 0.000000 0.000000 0.423659 -0.000000 0.000062 0.000000 0.000000 0.000000 0.423630 0.000000 0.000000 0.115390 0.000000 -0.000853 3.975448 0.501214 0.191076 0.022329 -0.000000 -0.426068 4.408208 0.345054 0.217893 -7.796351 4.457472 -10.498207 -3.495716 38.586447 29.655268 -0.115390 -0.000000 0.000853 7.009174 0.110952 -0.374569 -0.022775 -0.000000 -0.434566 1.208594 -0.929045 -0.053565 -11.598877 1.341679 -0.273682 -11.027768 -42.171333 -33.201078 
0.009733 -0.031645 0.859096 -0.000000 0.000000 4.330850 0.000000 0.000000 -0.000000 8.655199 1.516401 -0.035145 9.999305 0.103566 0.843196 -0.000000 0.035332 0.287757 40.536637 -3.018019 -1.145344 -0.000000 0.003791 0.217184 -7.131462 -0.000000 0.000001 -0.000000 0.035332 0.287757 -0.769707 0.000631 0.094533 0.185921 -0.000000 0.000000 -26.649117 78.217168 32.393787 0.313101 0.000132 0.001094 1.903476 9.234674 -22.863765 -0.000000 0.035332 0.287757 -0.717294 0.000550 0.088070 -0.185921 -0.000000 -0.000000 -0.226853 -78.113957 -0.229670 -0.303975 0.000132 0.001094 0.949978 -7.613048 13.385554 0.000000 -0.000000 -0.000000 0.399302 -0.000000 -0.000033 0.000000 -0.000000 -0.000000 0.399302 -0.000000 0.000000 0.115391 -0.000000 -0.000804 3.864370 0.570679 0.183394 0.022329 0.000000 -0.426068 4.483959 0.381724 0.220208 -7.645818 4.540320 -10.668491 -3.636582 38.682459 29.629740 -0.115391 -0.000000 0.000804 7.280344 0.009152 -0.382641 -0.022775 -0.000000 -0.434566 0.652151 -0.716930 -0.030108 -10.875516 1.514618 -0.744177 -11.011145 -42.256936 -33.445561 
0.010627 -0.031547 0.858711 -0.000000 0.000000 4.481218 0.000000 0.000000 0.000000 8.798915 1.444625 -0.035294 9.999429 0.094254 0.767701 -0.000000 0.035332 0.287757 40.242488 -3.117314 -1.423724 -0.000000 0.003791 0.217184 -7.368548 -0.000000 -0.000000 -0.000000 0.035332 0.287757 -0.838480 0.000751 0.102977 0.185921 0.000000 -0.000000 -26.596234 78.074977 32.407748 0.313101 0.000132 0.001094 1.951339 9.377775 -23.065590 -0.000000 0.035332 0.287757 -0.785992 0.000658 0.096508 -0.185921 -0.000000 -0.000000 -0.554737 -78.038524 -0.633996 -0.303975 0.000132 0.001094 0.927755 -7.400197 13.494990 -0.000000 -0.000000 0.000000 0.414041 0.000000 0.000073 -0.000000 -0.000000 0.000000 0.414011 -0.000000 0.000000 0.115390 0.000000 -0.000834 3.816614 0.661529 0.178107 0.022329 -0.000000 -0.426068 4.477508 0.391376 0.219513 -7.353927 4.545053 -10.685317 -3.906847 38.999175 29.800918 -0.115390 -0.000000 0.000834 7.512864 -0.043821 -0.391427 -0.022775 -0.000000 -0.434566 0.204173 -0.570256 -0.009686 -10.134552 1.647831 -1.156862 -11.021981 -42.211495 -33.312472 
